<?xml version="1.0" encoding="UTF-8"?>
<svg version="1.1" xmlns="http://www.w3.org/2000/svg" width="1024" height="1024">
<path d="M0 0 C337.92 0 675.84 0 1024 0 C1024 337.92 1024 675.84 1024 1024 C686.08 1024 348.16 1024 0 1024 C0 686.08 0 348.16 0 0 Z " fill="#FEFEFE" transform="translate(0,0)"/>
<path d="M0 0 C1.06911375 -0.00467997 2.1382275 -0.00935994 3.23973864 -0.01418173 C6.80462238 -0.02610069 10.36911948 -0.01668627 13.93400574 -0.00723267 C16.49711328 -0.0112998 19.06021906 -0.01664248 21.62332153 -0.02316284 C27.85258381 -0.03540935 34.0817041 -0.03363436 40.3109682 -0.02492492 C45.37740263 -0.0181361 50.44380669 -0.01723683 55.51024437 -0.02049637 C56.23270493 -0.02095607 56.95516549 -0.02141577 57.6995188 -0.0218894 C59.16745022 -0.02284863 60.63538164 -0.02382127 62.10331305 -0.02480717 C75.8554264 -0.03335349 89.60747967 -0.02353981 103.35958316 -0.00740607 C115.1406057 0.00598788 126.9215395 0.00367517 138.70256042 -0.01016235 C152.40247595 -0.02624634 166.10233883 -0.03252061 179.80226249 -0.02332556 C181.26556153 -0.02236998 182.72886059 -0.02142687 184.19215965 -0.02049637 C184.91201311 -0.02003354 185.63186656 -0.01957072 186.37353376 -0.01909386 C191.42800895 -0.01651178 196.48245056 -0.02085823 201.53692055 -0.02793503 C208.3520409 -0.03726761 215.1669917 -0.03054545 221.98209572 -0.01325226 C224.47813643 -0.00929782 226.97419127 -0.0104035 229.47022629 -0.01704025 C232.88797158 -0.02528723 236.3051884 -0.01489559 239.72290039 0 C240.70123567 -0.00669217 241.67957095 -0.01338433 242.68755275 -0.02027929 C254.93115252 0.08260522 266.15143276 3.04157077 275.30973816 11.45516968 C282.3120511 18.85798391 286.16773143 26.95249414 286.18335342 37.21618176 C286.18719457 38.16745361 286.19103571 39.11872546 286.19499326 40.09882373 C286.19412678 41.13577626 286.19326029 42.17272879 286.19236755 43.24110413 C286.19682424 44.90301819 286.19682424 44.90301819 286.20137095 46.59850627 C286.21005653 50.31855729 286.21156609 54.03857612 286.21305847 57.75863647 C286.21768675 60.42291923 286.2226909 63.08719906 286.22810364 65.7514801 C286.2416736 72.99542442 286.24770965 80.23936318 286.2521143 87.48331809 C286.25487909 92.00869918 286.25911688 96.53407813 286.26361847 101.05945778 C286.27580959 113.59519536 286.28610908 126.13093124 286.28949356 138.66667461 C286.28971313 139.46867365 286.28993269 140.27067268 286.29015891 141.09697472 C286.29037719 141.90086548 286.29059547 142.70475624 286.29082036 143.53300732 C286.29126382 145.16192798 286.29171039 146.79084863 286.29216003 148.41976929 C286.29238146 149.22776589 286.29260289 150.0357625 286.29283103 150.86824385 C286.29677768 163.95591214 286.31422834 177.04352471 286.33751956 190.13117149 C286.36125325 203.57626783 286.37369634 217.02133623 286.37486148 230.46645385 C286.37577713 238.012062 286.38150159 245.55759754 286.39968109 253.10318565 C286.41510936 259.52937923 286.42018652 265.95547777 286.41194299 272.38168635 C286.40804603 275.65789811 286.41056355 278.93387934 286.42300034 282.21007538 C286.43571581 285.76884052 286.4298446 289.32711756 286.41941833 292.88587952 C286.43150294 294.4245779 286.43150294 294.4245779 286.44383168 295.9943611 C286.36485232 307.55163552 283.11622574 316.77139579 275.27067566 325.32235718 C268.79770691 331.46371892 259.62343536 336.49827747 250.55649471 336.51237869 C249.63010533 336.51621984 248.70371595 336.52006098 247.74925417 336.52401853 C246.72982164 336.52315204 245.71038912 336.52228556 244.6600647 336.52139282 C243.03746588 336.52584951 243.03746588 336.52584951 241.38208729 336.53039622 C237.73874118 336.53910328 234.09542785 336.54059318 230.45207214 336.54208374 C227.84719777 336.54671058 225.24232407 336.55173505 222.63745117 336.55712891 C215.54627616 336.57071654 208.45510679 336.57673808 201.36392093 336.58113956 C196.93470118 336.58390218 192.50548361 336.58813966 188.07626534 336.59264374 C175.80996939 336.60483871 163.54367519 336.61513644 151.27737331 336.61851883 C150.0994779 336.61884818 150.0994779 336.61884818 148.89778662 336.61918418 C148.11064935 336.61940246 147.32351208 336.61962074 146.51252216 336.61984563 C144.91750236 336.62028909 143.32248257 336.62073566 141.72746277 336.6211853 C140.54068689 336.62151745 140.54068689 336.62151745 139.32993574 336.6218563 C126.52020035 336.62580126 113.71052195 336.64324502 100.90080857 336.66654482 C87.74505867 336.69028049 74.58933733 336.70272175 61.43356568 336.70388675 C54.0488942 336.70480245 46.66429692 336.710528 39.27964592 336.72870636 C32.33002339 336.7457535 25.38054363 336.74734335 18.4309063 336.73856735 C15.88242211 336.73779682 13.33393037 336.74214181 10.78546524 336.7520256 C7.30103371 336.76474481 3.81710044 336.75886781 0.33267212 336.7484436 C-0.67114535 336.75650001 -1.67496283 336.76455641 -2.70919901 336.77285695 C-14.31796667 336.69187406 -23.72212868 333.35255067 -32.14729309 325.27157593 C-38.57643032 318.3789704 -43.07200499 311.29377071 -43.07391548 301.68159199 C-43.07652323 300.73517788 -43.07913098 299.78876378 -43.08181775 298.81367046 C-43.07958702 297.77701391 -43.0773563 296.74035737 -43.07505798 295.67228699 C-43.07661797 294.56857669 -43.07817796 293.46486639 -43.07978523 292.32771033 C-43.08378525 288.61603295 -43.08060936 284.90439622 -43.07746887 281.19271851 C-43.07882339 278.53681315 -43.08056737 275.88091062 -43.08277893 273.2250061 C-43.08722998 266.75079451 -43.08626289 260.2765945 -43.08336629 253.80238245 C-43.08110868 248.53844227 -43.08080129 243.27450533 -43.08189011 238.0105648 C-43.08204334 237.26158237 -43.08219657 236.51259994 -43.08235445 235.74092108 C-43.08267418 234.21935179 -43.08299839 232.69778251 -43.08332704 231.17621323 C-43.08618014 216.90012828 -43.08289798 202.62404975 -43.07752667 188.34796586 C-43.07306336 176.10659764 -43.073831 163.8652389 -43.07844543 151.62387085 C-43.08380208 137.40691127 -43.08590065 123.18995733 -43.08283317 108.97299689 C-43.08251463 107.45546989 -43.08220026 105.93794288 -43.08189011 104.42041588 C-43.08173583 103.67378836 -43.08158156 102.92716083 -43.0814226 102.15790823 C-43.08056038 96.90472261 -43.08201409 91.65154056 -43.08436966 86.39835548 C-43.08718015 79.98969815 -43.08640325 73.58105306 -43.08108892 67.17239711 C-43.07846805 63.90449135 -43.07796131 60.63661009 -43.08073807 57.36870384 C-43.08347463 53.82062666 -43.08003766 50.27260663 -43.07505798 46.72453308 C-43.07728871 45.69903014 -43.07951943 44.67352721 -43.08181775 43.61694843 C-43.06598421 37.79141204 -42.69809191 32.15934344 -41.94807434 26.38095093 C-41.28807434 26.38095093 -40.62807434 26.38095093 -39.94807434 26.38095093 C-39.86557434 25.70032593 -39.78307434 25.01970093 -39.69807434 24.31845093 C-38.02351822 17.75977279 -34.1670933 12.5885321 -28.94807434 8.38095093 C-26.02437812 6.91910282 -23.13239052 6.08857675 -19.94807434 5.38095093 C-19.94807434 4.72095093 -19.94807434 4.06095093 -19.94807434 3.38095093 C-13.18570451 0.63623423 -7.25690005 -0.04930256 0 0 Z " fill="#3C65B8" transform="translate(411.9480743408203,342.6190490722656)"/>
<path d="M0 0 C2.90085816 1.28069403 5.66077195 2.7840312 8.4375 4.3125 C10.13761176 5.22862413 11.83815148 6.14395442 13.5390625 7.05859375 C14.43012695 7.54054199 15.32119141 8.02249023 16.23925781 8.51904297 C19.95063104 10.50995117 23.68938745 12.44598549 27.42944336 14.38232422 C35.80197074 18.71712246 44.11836002 23.13601076 52.375 27.6875 C61.95498506 32.96162312 71.65021591 37.99982304 81.375 43 C82.09322937 43.36934662 82.81145874 43.73869324 83.55145264 44.11923218 C90.68227995 47.78355738 97.81794249 51.43680868 105 55 C105 55.66 105 56.32 105 57 C105.66 57.0825 106.32 57.165 107 57.25 C110.99039163 58.24759791 114.38549643 60.07166683 118 62 C108.91037577 72.08468695 91.00002123 78.01667578 77.80322266 78.76121521 C66.86312901 79.10848905 55.91974407 78.68192918 45 78 C45.33 77.34 45.66 76.68 46 76 C48.1217782 75.29765895 50.27467759 74.68840476 52.4375 74.125 C57.43650494 72.77264554 62.20083824 71.20226539 66.9765625 69.203125 C71.27529557 67.49251804 75.63410594 65.96712417 80 64.4375 C80.83096191 64.14447998 81.66192383 63.85145996 82.51806641 63.54956055 C83.74662354 63.12090698 83.74662354 63.12090698 85 62.68359375 C85.721875 62.43150146 86.44375 62.17940918 87.1875 61.91967773 C91.433557 60.53123184 95.71754659 59.27099605 100 58 C99.05423096 58.03450256 99.05423096 58.03450256 98.08935547 58.06970215 C40.90282799 60.01096678 40.90282799 60.01096678 15.31201172 43.14794922 C11.62342 40.75577541 7.87853304 38.54181392 4.03515625 36.41015625 C3.42167831 36.05287949 2.80820038 35.69560272 2.1761322 35.32749939 C-0.78516371 33.71201878 -2.74460395 32.98836039 -6.13916016 33.14306641 C-8.91142521 33.97346838 -11.26077132 34.93530726 -13.80859375 36.30078125 C-14.70892334 36.77733154 -15.60925293 37.25388184 -16.53686523 37.74487305 C-17.49407471 38.26218994 -18.45128418 38.77950684 -19.4375 39.3125 C-21.49982678 40.40917998 -23.56233194 41.50552455 -25.625 42.6015625 C-26.67945313 43.16520508 -27.73390625 43.72884766 -28.8203125 44.30957031 C-32.87215781 46.46366866 -36.94698372 48.57168421 -41.02319336 50.67919922 C-57.44274414 57.97769306 -57.44274414 57.97769306 -72 68 C-74.69235776 68.23678716 -77.36498156 68.42198025 -80.0625 68.5625 C-81.20041992 68.62727539 -81.20041992 68.62727539 -82.36132812 68.69335938 C-84.24065438 68.79973633 -86.12030244 68.90039934 -88 69 C-87.33355469 69.16113281 -86.66710937 69.32226562 -85.98046875 69.48828125 C-75.5039787 72.57994475 -69.5757846 79.88652825 -62.65234375 87.84765625 C-58.97643889 92.06193611 -55.16127651 96.13139468 -51.3125 100.1875 C-46.51265061 105.26553753 -41.7271514 110.35418375 -37 115.5 C-33.08540604 119.75796763 -29.14304112 123.98828683 -25.17578125 128.19726562 C-23.81356277 129.64381192 -22.45416166 131.09301676 -21.09765625 132.54492188 C-17.74507254 136.12682489 -14.35968394 139.65556625 -10.8671875 143.1015625 C-10.2160498 143.75850098 -9.56491211 144.41543945 -8.89404297 145.09228516 C-7.66890446 146.32626715 -6.42658077 147.54352027 -5.16455078 148.73974609 C-2.2063946 151.7569092 -0.6188 153.91292951 -0.46875 158.21484375 C-0.86504295 163.7712012 -2.1783578 169.16519901 -3.5 174.5625 C-3.73847656 175.57119141 -3.97695313 176.57988281 -4.22265625 177.61914062 C-4.80620216 180.08170438 -5.39877751 182.54170359 -6 185 C-13 176.25 -13 176.25 -13 174 C-15.70868161 175.70778309 -18.41701695 177.41610967 -21.125 179.125 C-21.96216553 179.65327393 -22.79933105 180.18154785 -23.66186523 180.72583008 C-28.47741046 183.76715713 -33.28719641 186.81724728 -38.08984375 189.87890625 C-39.58330322 190.83095947 -39.58330322 190.83095947 -41.10693359 191.80224609 C-43.05963132 193.04780465 -45.01179019 194.29420844 -46.96337891 195.54150391 C-47.85331543 196.1091748 -48.74325195 196.6768457 -49.66015625 197.26171875 C-50.45043213 197.76662842 -51.24070801 198.27153809 -52.05493164 198.79174805 C-54 200 -54 200 -56 201 C-56 201.66 -56 202.32 -56 203 C-55.33282959 203.35602295 -54.66565918 203.7120459 -53.97827148 204.07885742 C-50.79649068 205.77890658 -47.61673023 207.4826857 -44.4375 209.1875 C-43.85697876 209.49835541 -43.27645752 209.80921082 -42.67834473 210.12948608 C-36.19381977 213.6048677 -29.74136341 217.12058545 -23.36328125 220.7890625 C-22.33211182 221.38178955 -21.30094238 221.9745166 -20.23852539 222.58520508 C-18.2838028 223.71498715 -16.33355087 224.85254898 -14.38842773 225.9987793 C-13.50227783 226.51093994 -12.61612793 227.02310059 -11.703125 227.55078125 C-10.93645508 228.00106689 -10.16978516 228.45135254 -9.37988281 228.9152832 C-5.57853549 230.64788334 -2.50743771 231.52268748 1.51928711 230.12646484 C2.3469458 229.65934082 3.17460449 229.1922168 4.02734375 228.7109375 C5.44635986 227.92601929 5.44635986 227.92601929 6.89404297 227.12524414 C7.89838379 226.54766357 8.90272461 225.97008301 9.9375 225.375 C10.98566895 224.78904053 12.03383789 224.20308105 13.11376953 223.59936523 C16.41778175 221.74774481 19.70865715 219.87402749 23 218 C25.11232137 216.81469404 27.22558072 215.63105785 29.33984375 214.44921875 C38.30474943 209.42431254 47.21049954 204.32693413 56 199 C55.19256348 198.53102295 54.38512695 198.0620459 53.55322266 197.57885742 C50.55700044 195.83426268 47.56446676 194.08365687 44.57421875 192.32885742 C43.2797458 191.57088384 41.98385377 190.81532834 40.68652344 190.06225586 C38.82107483 188.97883873 36.96091687 187.88680357 35.1015625 186.79296875 C33.98088379 186.1383667 32.86020508 185.48376465 31.70556641 184.80932617 C29 183 29 183 27 180 C72.04385371 175.97638503 72.04385371 175.97638503 91.375 190.25 C92.0349295 190.73520111 92.69485901 191.22040222 93.37478638 191.7203064 C97.16729105 194.57963051 100.8410884 197.44376395 104 201 C104 202.32 104 203.64 104 205 C88.52999176 213.78197334 73.00646258 222.46376112 57.44824219 231.08837891 C42.62038151 239.30858204 27.79938189 247.54112052 13 255.8125 C11.93700684 256.40554932 10.87401367 256.99859863 9.77880859 257.60961914 C8.79992676 258.15739014 7.82104492 258.70516113 6.8125 259.26953125 C5.52279297 259.99039917 5.52279297 259.99039917 4.20703125 260.72583008 C2.43140328 261.75094096 0.70594804 262.86270131 -1 264 C-7.5255781 263.89220773 -12.25046097 260.99843434 -17.8125 257.8125 C-19.77155153 256.71640368 -21.73121331 255.62139752 -23.69140625 254.52734375 C-24.71766113 253.95097168 -25.74391602 253.37459961 -26.80126953 252.78076172 C-32.24945898 249.74770617 -37.75251496 246.81743504 -43.25 243.875 C-52.71383978 238.78953002 -62.13997554 233.64480871 -71.51220703 228.39257812 C-74.44211797 226.75251806 -77.37539274 225.1185433 -80.30859375 223.484375 C-82.53915238 222.2397444 -84.76962154 220.99495344 -87 219.75 C-88.03906494 219.17121094 -89.07812988 218.59242188 -90.14868164 217.99609375 C-93.1059329 216.34248495 -96.05370394 214.67303243 -99 213 C-99.98097656 212.45537109 -100.96195312 211.91074219 -101.97265625 211.34960938 C-102.88917969 210.82689453 -103.80570312 210.30417969 -104.75 209.765625 C-105.56984375 209.30446289 -106.3896875 208.84330078 -107.234375 208.36816406 C-107.81703125 207.91666992 -108.3996875 207.46517578 -109 207 C-109 206.01 -109 205.02 -109 204 C-106.87115731 202.28753389 -104.78059109 200.80132942 -102.5 199.3125 C-101.78932373 198.83683594 -101.07864746 198.36117187 -100.34643555 197.87109375 C-98.76047443 196.81143303 -97.17133058 195.75652545 -95.57958984 194.70556641 C-92.91603764 192.94448599 -90.26376391 191.16740111 -87.61328125 189.38671875 C-82.01230458 185.62926518 -76.39502493 181.8968319 -70.77142334 178.17333984 C-68.88688089 176.92507316 -67.00324925 175.67543888 -65.11962891 174.42578125 C-61.77952785 172.21089253 -58.43571948 170.00169533 -55.08944702 167.79614258 C-53.78311903 166.93422708 -52.47779391 166.07078963 -51.17349243 165.20581055 C-49.35029732 163.99737744 -47.52334729 162.79484503 -45.6953125 161.59375 C-44.64359863 160.89958984 -43.59188477 160.20542969 -42.50830078 159.49023438 C-40 158 -40 158 -38 158 C-42.53850717 152.61991534 -47.33218148 147.59761277 -52.375 142.6875 C-55.08433458 139.91365745 -57.61326808 137.02999966 -60.15234375 134.1015625 C-63.18320975 130.65419272 -66.34234869 127.33091064 -69.5 124 C-70.9102845 122.50663152 -72.32043755 121.0131389 -73.73046875 119.51953125 C-74.43993652 118.76881348 -75.1494043 118.0180957 -75.88037109 117.24462891 C-84.41973729 108.2016742 -92.92279164 99.12704641 -101.30859375 89.94140625 C-103.75576802 87.26691826 -106.21513689 84.60446759 -108.67944336 81.94580078 C-112.51960948 77.79940036 -116.35768462 73.65032777 -120.125 69.4375 C-120.64320313 68.85871094 -121.16140625 68.27992188 -121.6953125 67.68359375 C-123.09224702 65.88096268 -124.00763804 64.04724114 -125 62 C-121.50130124 60.08095109 -118.00080705 58.16519979 -114.5 56.25 C-113.51773437 55.71117187 -112.53546875 55.17234375 -111.5234375 54.6171875 C-106.6954148 51.97786842 -101.85761584 49.38995555 -96.92236328 46.95703125 C-93.31142975 45.15936051 -89.75334331 43.2600819 -86.1875 41.375 C-84.51696001 40.49342718 -82.84638607 39.6119187 -81.17578125 38.73046875 C-80.3245166 38.28106934 -79.47325195 37.83166992 -78.59619141 37.36865234 C-76.01770209 36.00933214 -73.43699567 34.65432264 -70.85546875 33.30078125 C-70.02055908 32.86266113 -69.18564941 32.42454102 -68.32543945 31.97314453 C-66.74494982 31.14392679 -65.16408547 30.31542267 -63.58276367 29.48779297 C-59.82582064 27.51472515 -56.09627154 25.50468568 -52.39453125 23.4296875 C-48.58672657 21.30322441 -44.7329002 19.34853478 -40.8125 17.4375 C-31.11896746 12.66204466 -21.67655286 7.42599401 -12.21972656 2.20166016 C-11.4872168 1.8051123 -10.75470703 1.40856445 -10 1 C-8.95066284 0.42318481 -8.95066284 0.42318481 -7.88012695 -0.1652832 C-4.92238152 -1.47842846 -3.09683512 -0.84526251 0 0 Z " fill="#FBFCFD" transform="translate(537,380)"/>
<path d="M0 0 C1.10278545 -0.00694553 2.20557091 -0.01389106 3.34177411 -0.02104706 C7.0087503 -0.03923114 10.67507323 -0.02907623 14.34207153 -0.01878357 C16.98268618 -0.02584641 19.62325564 -0.0344572 22.26385498 -0.04489136 C28.67499606 -0.06646002 35.08595915 -0.06642279 41.49712454 -0.05826581 C46.71177559 -0.05194857 51.926375 -0.05311859 57.14102554 -0.05953789 C57.88512929 -0.06043954 58.62923304 -0.0613412 59.39588539 -0.06227018 C60.90786402 -0.06412151 62.41984264 -0.06598407 63.93182124 -0.06785773 C78.08934476 -0.08441163 92.24676843 -0.07573788 106.40428592 -0.05887216 C119.33441117 -0.04418048 132.26430392 -0.05880029 145.19439922 -0.08764232 C158.49621152 -0.11709074 171.79791673 -0.12799257 185.09976017 -0.11846012 C186.60657762 -0.11743765 188.11339508 -0.11644304 189.62021255 -0.11547661 C190.73206603 -0.11476202 190.73206603 -0.11476202 191.86638119 -0.114033 C197.06871667 -0.11187588 202.27094995 -0.1216355 207.47326279 -0.13624763 C213.82207956 -0.15383246 220.17060025 -0.15356627 226.51940571 -0.13089598 C229.75362782 -0.11980837 232.98722621 -0.1192049 236.22144318 -0.13519669 C265.81775679 -0.26991339 265.81775679 -0.26991339 275.51443481 8.5146637 C275.51443481 9.5046637 275.51443481 10.4946637 275.51443481 11.5146637 C273.56143607 10.5510696 271.62659841 9.57735776 269.72537231 8.5146637 C261.04697348 3.78770603 252.11691779 3.21676445 242.39227295 3.26069641 C240.77885389 3.25601644 240.77885389 3.25601644 239.13284051 3.25124192 C235.55246224 3.2433066 231.97225556 3.24956805 228.39187622 3.25587463 C225.81564231 3.25316289 223.23940917 3.24960093 220.66317749 3.24525452 C214.40802567 3.23638901 208.152922 3.23826927 201.89776833 3.2440798 C196.81508511 3.24860509 191.73241534 3.24920546 186.64973068 3.24703217 C185.92509583 3.2467257 185.20046097 3.24641923 184.45386749 3.24610348 C182.98165175 3.24546401 181.50943601 3.24481558 180.03722028 3.2441583 C166.25388295 3.23846397 152.47057229 3.24500006 138.68723933 3.25575903 C126.85993051 3.2647051 115.03266091 3.26313208 103.20535278 3.25392151 C89.46046852 3.24322259 75.71560754 3.23900126 61.9707197 3.24514604 C60.50589459 3.24578313 59.04106947 3.24641187 57.57624435 3.24703217 C56.49521811 3.24749499 56.49521811 3.24749499 55.39235295 3.24796717 C50.31257435 3.2496944 45.23281052 3.24677865 40.15303421 3.24207306 C33.32236304 3.23588433 26.49177765 3.2402788 19.66110992 3.25186157 C17.15041859 3.2545127 14.63972102 3.2537354 12.12903214 3.24933624 C8.7108343 3.24389764 5.29287719 3.25069441 1.87469482 3.26069641 C0.87373893 3.25623497 -0.12721696 3.25177352 -1.15850484 3.24717689 C-2.53017511 3.25500013 -2.53017511 3.25500013 -3.92955589 3.26298141 C-4.7185101 3.26330612 -5.5074643 3.26363082 -6.32032621 3.26396537 C-8.75494479 3.54585333 -10.33200661 4.38251393 -12.48556519 5.5146637 C-15.23556519 5.6396637 -15.23556519 5.6396637 -17.48556519 5.5146637 C-17.48556519 6.1746637 -17.48556519 6.8346637 -17.48556519 7.5146637 C-19.89267459 9.165253 -22.049993 10.38857701 -24.86056519 11.2021637 C-30.46074246 14.00225234 -34.25040793 19.22777564 -36.42306519 25.0146637 C-36.77369019 26.1696637 -37.12431519 27.3246637 -37.48556519 28.5146637 C-38.14556519 28.5146637 -38.80556519 28.5146637 -39.48556519 28.5146637 C-39.48445488 29.16558015 -39.48334457 29.8164966 -39.48220062 30.48713779 C-39.39322275 85.78501111 -39.64389762 141.08024784 -39.9309473 196.37726939 C-39.99285854 208.3180756 -40.05264814 220.25889221 -40.11232281 232.19970977 C-40.23449855 256.63803934 -40.35913899 281.07635577 -40.48556519 305.5146637 C-40.81556519 305.5146637 -41.14556519 305.5146637 -41.48556519 305.5146637 C-41.85998709 259.35410805 -42.18117737 213.19332564 -42.44274896 167.03198975 C-42.47076224 162.09075201 -42.49939555 157.14951848 -42.52860343 152.20828766 C-42.6308129 134.87503715 -42.7187415 117.54188399 -42.76198769 100.20837498 C-42.77945477 93.28872539 -42.80303219 86.36924372 -42.8444519 79.44969177 C-42.8831268 72.97466033 -42.90095669 66.49978335 -42.90451622 60.02463531 C-42.90899131 57.67119265 -42.92020791 55.31775094 -42.93891335 52.96437836 C-43.15266017 24.7967295 -43.15266017 24.7967295 -34.73556519 14.5771637 C-33.35361891 13.18758236 -31.93760741 11.83082674 -30.48556519 10.5146637 C-29.54003784 9.65228088 -29.54003784 9.65228088 -28.57540894 8.7724762 C-20.16712204 1.83175477 -10.65477516 -0.08696455 0 0 Z " fill="#B7E8F0" transform="translate(409.4855651855469,340.48533630371094)"/>
<path d="M0 0 C1.73497442 2.60246163 2.61268134 4.46089668 3.5625 7.375 C3.81128906 8.12523437 4.06007813 8.87546875 4.31640625 9.6484375 C5.49883462 13.71599108 6.1248223 17.53314708 6.13422108 21.76996803 C6.13867892 22.7066896 6.14313676 23.64341117 6.14772969 24.60851824 C6.14754533 25.62922486 6.14736097 26.64993148 6.14717102 27.7015686 C6.15084771 28.79247154 6.1545244 29.88337447 6.1583125 31.00733507 C6.16934234 34.6697711 6.17319201 38.33217875 6.17700195 41.99462891 C6.18326711 44.61788015 6.18991395 47.2411305 6.19691467 49.86437988 C6.21665149 57.74079588 6.22674145 65.6172131 6.23564246 73.49364763 C6.24002966 77.20604604 6.24539532 80.91844302 6.25063133 84.6308403 C6.26764032 96.97699245 6.28213375 109.32314373 6.28938007 121.6693058 C6.29128985 124.87117133 6.2932102 128.07303685 6.29516602 131.27490234 C6.29564976 132.07067418 6.2961335 132.86644602 6.2966319 133.68633215 C6.30492951 146.5728813 6.33026334 159.45933754 6.36274669 172.34584613 C6.39584953 185.5864147 6.41383172 198.82693609 6.41702431 212.06754625 C6.41918636 219.49751893 6.42789014 226.9273561 6.45348549 234.35728836 C6.47523657 240.68575564 6.48322132 247.01405447 6.47351871 253.34255488 C6.46898673 256.56832726 6.4729963 259.79368136 6.49028015 263.01942062 C6.50801087 266.52541426 6.500886 270.0305347 6.48774719 273.53652954 C6.49871644 274.54385183 6.50968568 275.55117412 6.52098733 276.58902133 C6.45058557 284.40270584 4.49060004 291.01879991 1 298 C0.34 298 -0.32 298 -1 298 C-1.04125 298.886875 -1.0825 299.77375 -1.125 300.6875 C-2.09960809 304.37708776 -3.36103004 305.52830309 -6.37109375 307.76953125 C-8.81216375 309.61350499 -10.87148791 311.81067328 -13 314 C-14 315 -14 315 -17.0625 315.0625 C-18.031875 315.041875 -19.00125 315.02125 -20 315 C-18.01435569 313.50190228 -16.0236049 312.01687381 -14 310.5703125 C-5.39914873 304.35485358 -0.09315712 296.51186923 2 286 C2.28579786 282.30325628 2.27429909 278.61915524 2.26069641 274.91279602 C2.26452196 273.80455559 2.26834751 272.69631517 2.27228898 271.5544917 C2.282598 267.84528004 2.27863071 264.13622378 2.2746582 260.42700195 C2.27900591 257.76566557 2.28412495 255.10434053 2.29014587 252.44300842 C2.30288307 245.96618939 2.30468768 239.48941184 2.30234561 233.0125824 C2.30056069 227.74492215 2.30231583 222.47727446 2.30657005 217.20961571 C2.30716524 216.45913055 2.30776043 215.7086454 2.30837366 214.93541827 C2.30958545 213.41063379 2.31079959 211.8858493 2.31201603 210.36106481 C2.32288843 196.06627195 2.32073088 181.77150268 2.31463119 167.47670849 C2.30946598 154.41638052 2.32070753 141.35612722 2.33972941 128.29581401 C2.35913152 114.87098008 2.36735941 101.44618143 2.36360615 88.0213334 C2.36169723 80.4902289 2.36415116 72.95918789 2.37832069 65.42809486 C2.39026598 59.0144432 2.3916045 52.60089409 2.37953053 46.18724094 C2.37366292 42.91887374 2.37412684 39.65073141 2.38453293 36.38237 C2.3950283 32.82878232 2.38687666 29.27569239 2.3742218 25.72212219 C2.38159609 24.70351319 2.38897037 23.68490419 2.39656812 22.63542825 C2.34870368 16.21241038 1.34179777 10.57925591 -0.45456249 4.40820664 C-1 2 -1 2 0 0 Z " fill="#F2F8FB" transform="translate(695,361)"/>
<path d="M0 0 C0.27457031 0.55042969 0.54914063 1.10085938 0.83203125 1.66796875 C1.41017578 2.82232422 1.41017578 2.82232422 2 4 C2.41636719 4.84175781 2.83273437 5.68351563 3.26171875 6.55078125 C8.18761754 16.09217973 13.91871647 22.80077582 24 27 C30.44754413 28.95050569 36.29419208 29.28372879 43.0065918 29.25396729 C44.6377155 29.25864726 44.6377155 29.25864726 46.30179119 29.26342177 C49.93432269 29.27137942 53.5666861 29.26508673 57.19921875 29.25878906 C59.80807594 29.26149991 62.41693237 29.26506137 65.02578735 29.26940918 C71.36945122 29.27828787 77.71306767 29.27638798 84.05673337 29.2705839 C89.21380072 29.26606141 94.37085482 29.26545704 99.52792358 29.26763153 C100.26277597 29.267938 100.99762836 29.26824446 101.754749 29.26856022 C103.24773288 29.26919969 104.74071676 29.26984811 106.23370063 29.2705054 C120.22316794 29.27620423 134.21260902 29.26965782 148.20207202 29.25890467 C160.19755334 29.24996956 172.19299594 29.25152173 184.18847656 29.26074219 C198.12895374 29.27145272 212.06940793 29.27565495 226.00988865 29.26951766 C227.49728457 29.26888058 228.98468049 29.26825184 230.47207642 29.26763153 C231.20384415 29.26732298 231.93561188 29.26701443 232.68955439 29.26669653 C237.83856394 29.26497194 242.98755888 29.2678796 248.13656616 29.27259064 C255.07063847 29.27879563 262.00463651 29.27435815 268.93870163 29.26280212 C271.48318739 29.26015817 274.02767931 29.26091612 276.57216263 29.26532745 C280.04599414 29.27079461 283.51959159 29.26393426 286.9934082 29.25396729 C288.50275704 29.26065945 288.50275704 29.26065945 290.04259777 29.26748681 C295.70595722 29.23598306 300.56521757 28.6148473 306 27 C304.49663557 30.00672886 303.09366002 30.61189695 300 32 C296.37434225 32.44681795 292.76883458 32.40445517 289.11965942 32.38095093 C288.00960002 32.3856309 286.89954061 32.39031087 285.75584304 32.39513266 C282.0286769 32.4071179 278.30187604 32.39761128 274.57470703 32.38818359 C271.90554731 32.39224777 269.23641293 32.39748011 266.56726074 32.40411377 C260.06508534 32.41745799 253.56301379 32.41457007 247.0608343 32.40587585 C241.77544006 32.39910125 236.49007492 32.39818161 231.20467758 32.4014473 C230.45247783 32.401907 229.70027809 32.40236669 228.92528441 32.40284032 C227.39718819 32.4037995 225.86909198 32.40477214 224.34099577 32.4057581 C210.00915069 32.41431431 195.67736316 32.40447485 181.34552751 32.388357 C169.05177465 32.37495906 156.75810679 32.37727712 144.46435547 32.39111328 C130.18696661 32.40717444 115.90962823 32.41348456 101.63223159 32.40427649 C100.10913905 32.40332085 98.5860465 32.40237774 97.06295395 32.4014473 C96.31357588 32.40098447 95.56419781 32.40052164 94.79211131 32.40004479 C89.51492024 32.3974561 84.23776122 32.40182341 78.9605751 32.40888596 C72.52659611 32.41730735 66.09272689 32.41500765 59.65876044 32.39904372 C56.37685473 32.39116867 53.09516936 32.38967573 49.81325912 32.39799118 C46.25342584 32.40617958 42.69410823 32.39591686 39.13430786 32.38095093 C37.58250169 32.39098918 37.58250169 32.39098918 35.9993459 32.40123022 C30.21914524 32.35404443 26.13487571 31.70319872 21 29 C21 28.34 21 27.68 21 27 C20.34 26.95875 19.68 26.9175 19 26.875 C10.51683316 24.40074301 5.2393898 17.40136562 1 10 C-0.59395586 6.34888743 -1.30128061 3.90384183 0 0 Z " fill="#DEE6EB" transform="translate(369,649)"/>
<path d="M0 0 C0.33 0 0.66 0 1 0 C1.34396193 48.14358037 1.65116267 96.28730384 1.91375065 144.43139935 C1.95936392 152.77823479 2.0060418 161.12505923 2.05718994 169.47186279 C2.14916063 184.51136936 2.2327843 199.55071455 2.2764225 214.59045982 C2.29392782 220.5868621 2.31784938 226.58305408 2.35888672 232.5793457 C2.39651342 238.12141244 2.41536309 243.66321003 2.41895103 249.20540047 C2.42342228 251.19592097 2.43462614 253.1864405 2.45334816 255.17687798 C2.47757152 257.86362334 2.4769043 260.54926413 2.4699707 263.23608398 C2.48278328 264.00000961 2.49559586 264.76393524 2.50879669 265.55101013 C2.45258189 271.40338009 0.67170358 275.83184252 -2 281 C-2.66 281 -3.32 281 -4 281 C-4.04125 281.886875 -4.0825 282.77375 -4.125 283.6875 C-5.09960809 287.37708776 -6.36103004 288.52830309 -9.37109375 290.76953125 C-11.81216375 292.61350499 -13.87148791 294.81067328 -16 297 C-17 298 -17 298 -20.0625 298.0625 C-21.031875 298.041875 -22.00125 298.02125 -23 298 C-21.01435569 296.50190228 -19.0236049 295.01687381 -17 293.5703125 C-8.39502696 287.35187495 -3.10061828 279.5132279 -1 269 C-0.7097924 265.31464258 -0.71456056 261.64132431 -0.7215271 257.94593811 C-0.7157347 256.84148155 -0.7099423 255.73702499 -0.70397437 254.59910005 C-0.68698773 250.90335796 -0.68409896 247.20774085 -0.68115234 243.51196289 C-0.67185325 240.86071057 -0.66177152 238.20947199 -0.65071106 235.55822754 C-0.62846799 229.85288584 -0.61343698 224.14756199 -0.60334396 218.44218636 C-0.58874079 210.19324025 -0.56319939 201.94435634 -0.53501268 193.69544678 C-0.48957444 180.31122255 -0.45294737 166.92698934 -0.421875 153.54272461 C-0.3916773 140.54335964 -0.35732142 127.54401659 -0.31738281 114.54467773 C-0.31369049 113.34218362 -0.31369049 113.34218362 -0.30992357 112.11539669 C-0.29754874 108.09357575 -0.28509225 104.07175507 -0.27259517 100.04993451 C-0.16907182 66.69998615 -0.07985391 33.3500134 0 0 Z " fill="#DBE3EE" transform="translate(698,378)"/>
<path d="M0 0 C0.80619618 2.8337223 1.12241013 5.33710642 1.11352539 8.27960205 C1.11345238 9.13369124 1.11337936 9.98778044 1.11330414 10.86775112 C1.10555843 12.269811 1.10555843 12.269811 1.09765625 13.70019531 C1.09621864 14.69841088 1.09478104 15.69662645 1.09329987 16.72509098 C1.08951329 18.92192443 1.08340125 21.11875477 1.07530212 23.31557655 C1.06218665 26.91409877 1.05529617 30.51258807 1.04992676 34.11112976 C1.04157659 39.37852711 1.03087603 44.64591122 1.01831055 49.91329956 C0.98494528 64.19869209 0.97348651 78.48410334 0.96875 92.76953125 C0.96846235 93.52074792 0.96817471 94.27196459 0.96787834 95.04594541 C0.95437023 134.15293906 1.20460869 173.25805214 1.48177338 212.36390495 C1.5000756 214.94817423 1.51827008 217.53244425 1.53643799 220.11671448 C1.683942 241.07786351 1.83786934 262.03895879 2 283 C0 282 0 282 -0.61713493 280.23616177 C-1.02527672 277.85236879 -1.1253693 275.64012201 -1.12584114 273.22141171 C-1.12844889 272.25736382 -1.13105664 271.29331594 -1.13374341 270.30005449 C-1.13151268 269.24374143 -1.12928196 268.18742838 -1.12698364 267.09910583 C-1.12854363 265.97482793 -1.13010362 264.85055003 -1.13171089 263.6922031 C-1.13571111 259.91124396 -1.13253499 256.13032471 -1.12939453 252.34936523 C-1.13019871 249.64431678 -1.1324929 246.93927003 -1.13470459 244.23422241 C-1.13915505 237.64170697 -1.13818907 231.04920291 -1.13529195 224.45668703 C-1.13303527 219.10020864 -1.13272654 213.74373344 -1.13381577 208.38725471 C-1.133969 207.6254385 -1.13412223 206.86362229 -1.13428011 206.07872074 C-1.13459983 204.53120907 -1.13492404 202.98369739 -1.1352527 201.43618573 C-1.13810532 186.91992855 -1.13482378 172.40367769 -1.12945233 157.88742156 C-1.12498359 145.4247004 -1.12576123 132.96198856 -1.13037109 120.49926758 C-1.13571914 106.0340591 -1.1378316 91.56885615 -1.13475883 77.10364681 C-1.13444027 75.56207438 -1.1341259 74.02050195 -1.13381577 72.47892952 C-1.13366149 71.72040128 -1.13350721 70.96187305 -1.13334826 70.18035911 C-1.13248387 64.82817403 -1.1339443 59.47599245 -1.13629532 54.12380791 C-1.13909603 47.60445371 -1.13834926 41.08511157 -1.13301457 34.56575876 C-1.13038138 31.23783497 -1.12990185 27.90994798 -1.13266373 24.58202171 C-1.13537888 20.97929765 -1.13198954 17.37663089 -1.12698364 13.77391052 C-1.12921436 12.71536674 -1.13144509 11.65682297 -1.13374341 10.5662021 C-1.13113566 9.60476197 -1.12852791 8.64332184 -1.12584114 7.65274715 C-1.12567879 6.82066988 -1.12551644 5.9885926 -1.12534916 5.13130087 C-1 3 -1 3 0 0 Z " fill="#E9FAF7" transform="translate(367,369)"/>
<path d="M0 0 C33.58919408 -0.09160498 67.17835702 -0.16206381 100.76764833 -0.20426132 C104.73539857 -0.209264 108.70314856 -0.2144413 112.67089844 -0.21972656 C113.46078825 -0.2207758 114.25067806 -0.22182505 115.06450392 -0.22290608 C127.84534264 -0.24029957 140.62610921 -0.27183142 153.40690516 -0.30861118 C166.52639292 -0.34605004 179.64584295 -0.36824207 192.76538193 -0.37635398 C200.85738592 -0.38183566 208.94918596 -0.39913349 217.04112716 -0.43166587 C223.25163689 -0.45535861 229.46199192 -0.45781241 235.67254066 -0.45243073 C238.21619356 -0.45353005 240.75985426 -0.46147174 243.30346107 -0.4768219 C246.78159919 -0.49678004 250.25887105 -0.49191699 253.73703003 -0.48101807 C254.73900291 -0.49266943 255.7409758 -0.5043208 256.7733115 -0.51632524 C264.90800928 -0.44762364 272.80786579 1.39685114 279 7 C279 7.99 279 8.98 279 10 C277.04700125 9.0364059 275.11216359 8.06269406 273.2109375 7 C264.59181263 2.30532773 255.70137328 1.70227505 246.04074097 1.7215271 C244.98272376 1.7157347 243.92470656 1.7099423 242.83462822 1.70397437 C239.31403703 1.68706332 235.79357764 1.68410553 232.27294922 1.68115234 C229.73948346 1.67184804 227.20602075 1.66167862 224.67256165 1.65071106 C219.23082242 1.6290914 213.7891191 1.61345475 208.34734726 1.60334396 C200.47961684 1.58871528 192.61195117 1.5631669 184.7442589 1.53501268 C171.97730959 1.48962053 159.21035092 1.45297452 146.44335938 1.421875 C134.04653277 1.39165834 121.64972903 1.35729382 109.25292969 1.31738281 C108.48789906 1.31492126 107.72286843 1.31245972 106.93465506 1.30992357 C103.09645487 1.29754837 99.25825495 1.28509195 95.42005515 1.27259517 C63.613401 1.16914091 31.80672194 1.08004684 0 1 C0 0.67 0 0.34 0 0 Z " fill="#DFF6F5" transform="translate(406,342)"/>
<path d="M0 0 C0.91007812 0.00902344 1.82015625 0.01804687 2.7578125 0.02734375 C3.80582031 0.04474609 3.80582031 0.04474609 4.875 0.0625 C2.875 2.0625 2.875 2.0625 0.25 2.1875 C-0.53375 2.14625 -1.3175 2.105 -2.125 2.0625 C-2.125 2.7225 -2.125 3.3825 -2.125 4.0625 C-4.5321094 5.7130893 -6.68942782 6.93641332 -9.5 7.75 C-15.10017728 10.55008864 -18.88984274 15.77561194 -21.0625 21.5625 C-21.413125 22.7175 -21.76375 23.8725 -22.125 25.0625 C-22.785 25.0625 -23.445 25.0625 -24.125 25.0625 C-25.14120416 31.81584779 -25.29530349 38.43875534 -25.33032227 45.26171875 C-25.34022186 46.46257614 -25.35012146 47.66343353 -25.36032104 48.90068054 C-25.38636984 52.17075138 -25.40828847 55.44081768 -25.42832303 58.71092987 C-25.45030499 62.13690212 -25.4776335 65.56283176 -25.50437927 68.98876953 C-25.55414209 75.46606013 -25.59914125 81.94337458 -25.64240164 88.42071152 C-25.69191497 95.7992612 -25.74678048 103.1777681 -25.80208123 110.55627632 C-25.91564908 125.72497762 -26.02254222 140.89371929 -26.125 156.0625 C-26.455 156.0625 -26.785 156.0625 -27.125 156.0625 C-27.21873251 139.7283144 -27.28912005 123.39421697 -27.33224869 107.05982685 C-27.35281259 99.47428165 -27.38081392 91.88890425 -27.42675781 84.3034668 C-27.46681594 77.68658854 -27.49247759 71.0698319 -27.50135398 64.45283574 C-27.50653692 60.95402817 -27.51858694 57.45556829 -27.54792023 53.95687294 C-27.58051603 50.03669692 -27.58094735 46.11685092 -27.57910156 42.1965332 C-27.59348267 41.055728 -27.60786377 39.91492279 -27.62268066 38.73954773 C-27.56543187 27.42787722 -25.39744873 17.24895068 -17.2890625 9.00390625 C-7.15033062 -0.09167091 -7.15033062 -0.09167091 0 0 Z " fill="#DEFAF5" transform="translate(394.125,343.9375)"/>
<path d="M0 0 C5.8098728 8.7148092 5.41461136 18.05186943 5.34057617 28.16821289 C5.33972881 29.79513534 5.34020717 31.42205893 5.34190369 33.04898071 C5.34276082 37.44303753 5.32518101 41.83684628 5.30418181 46.23084569 C5.28536775 50.83124725 5.28366085 55.43165514 5.28010559 60.03208923 C5.27079898 68.73354723 5.24620401 77.43489152 5.21605712 86.13629955 C5.18246993 96.0468236 5.16601626 105.95735321 5.15097082 115.86792004 C5.11965318 136.24534338 5.0669197 156.62266451 5 177 C4.67 177 4.34 177 4 177 C3.99780016 175.78107921 3.99780016 175.78107921 3.99555588 174.53753376 C3.95842739 154.721363 3.8993328 134.90536245 3.81609726 115.08932972 C3.77636839 105.50624643 3.74394473 95.92324453 3.72900391 86.34008789 C3.71595541 77.98277278 3.68890952 69.62563722 3.64538693 61.26842326 C3.62284377 56.84750888 3.60708501 52.42681535 3.60811615 48.00583839 C3.60886702 43.83523153 3.59074698 39.66511155 3.55883217 35.49463081 C3.5503905 33.9730222 3.54854375 32.45135861 3.55419731 30.92973709 C3.5819276 22.31089439 2.79554347 14.8181293 -0.24184799 6.66613293 C-1.02704609 3.90488915 -0.99771995 2.64559474 0 0 Z " fill="#E6EEF5" transform="translate(695,361)"/>
<path d="M0 0 C0.91007812 0.00902344 1.82015625 0.01804687 2.7578125 0.02734375 C3.80582031 0.04474609 3.80582031 0.04474609 4.875 0.0625 C2.875 2.0625 2.875 2.0625 0.25 2.1875 C-0.53375 2.14625 -1.3175 2.105 -2.125 2.0625 C-2.125 2.7225 -2.125 3.3825 -2.125 4.0625 C-4.5321094 5.7130893 -6.68942782 6.93641332 -9.5 7.75 C-15.10017728 10.55008864 -18.88984274 15.77561194 -21.0625 21.5625 C-21.413125 22.7175 -21.76375 23.8725 -22.125 25.0625 C-23.8706466 22.54101047 -24.17553447 21.38014521 -23.6875 18.3125 C-19.4320821 9.46123078 -10.25807807 -0.13151382 0 0 Z " fill="#D6F6F6" transform="translate(394.125,343.9375)"/>
<path d="M0 0 C0.27457031 0.55042969 0.54914063 1.10085938 0.83203125 1.66796875 C1.41017578 2.82232422 1.41017578 2.82232422 2 4 C2.41636719 4.84175781 2.83273437 5.68351563 3.26171875 6.55078125 C8.2508221 16.2146061 13.92015304 22.59651737 24 27 C26.66902246 27.85124969 29.24618384 28.44923677 32 29 C32 29.33 32 29.66 32 30 C28.37 29.67 24.74 29.34 21 29 C21 28.34 21 27.68 21 27 C20.34 26.95875 19.68 26.9175 19 26.875 C10.51683316 24.40074301 5.2393898 17.40136562 1 10 C-0.59395586 6.34888743 -1.30128061 3.90384183 0 0 Z " fill="#D2E6EF" transform="translate(369,649)"/>
<path d="M0 0 C0.33 0 0.66 0 1 0 C1.28571429 8.57142857 1.28571429 8.57142857 -1 12 C-1.66 12 -2.32 12 -3 12 C-3.04125 12.886875 -3.0825 13.77375 -3.125 14.6875 C-4.09960809 18.37708776 -5.36103004 19.52830309 -8.37109375 21.76953125 C-10.81216375 23.61350499 -12.87148791 25.81067328 -15 28 C-16 29 -16 29 -19.0625 29.0625 C-20.031875 29.041875 -21.00125 29.02125 -22 29 C-20.01435569 27.50190228 -18.0236049 26.01687381 -16 24.5703125 C-7.11405196 18.14882661 -2.6351801 10.54072042 0 0 Z " fill="#D8D9E2" transform="translate(697,647)"/>
<path d="M0 0 C19.14 0 38.28 0 58 0 C54.81237635 2.12508244 52.73487777 2.5020163 49 3 C49 2.34 49 1.68 49 1 C32.83 1 16.66 1 0 1 C0 0.67 0 0.34 0 0 Z " fill="#617BC6" transform="translate(582,437)"/>
<path d="M0 0 C6.26328554 0.61514412 12.06378866 2.3807229 17.1875 6.15234375 C17.96875 8.3203125 17.96875 8.3203125 18.1875 10.15234375 C16.23450125 9.18874965 14.29966359 8.21503781 12.3984375 7.15234375 C7.15454013 4.29609327 2.0659842 3.06784539 -3.8125 2.15234375 C-1.8125 0.15234375 -1.8125 0.15234375 0 0 Z " fill="#DCE6F1" transform="translate(666.8125,341.84765625)"/>
<path d="M0 0 C1.33804687 0.04060547 1.33804687 0.04060547 2.703125 0.08203125 C3.37859375 0.11683594 4.0540625 0.15164063 4.75 0.1875 C2.75 2.1875 2.75 2.1875 0.125 2.3125 C-0.65875 2.27125 -1.4425 2.23 -2.25 2.1875 C-2.25 2.8475 -2.25 3.5075 -2.25 4.1875 C-4.625 5.875 -4.625 5.875 -7.25 7.1875 C-7.91 6.8575 -8.57 6.5275 -9.25 6.1875 C-9.25 3.1875 -9.25 3.1875 -7.578125 1.51171875 C-4.80639822 -0.06481712 -3.16147376 -0.12479502 0 0 Z " fill="#A3EBF2" transform="translate(394.25,343.8125)"/>
<path d="M0 0 C6.6 0 13.2 0 20 0 C16.81237635 2.12508244 14.73487777 2.5020163 11 3 C11 2.34 11 1.68 11 1 C7.37 1 3.74 1 0 1 C0 0.67 0 0.34 0 0 Z " fill="#576CBD" transform="translate(620,437)"/>
<path d="M0 0 C0.66 0 1.32 0 2 0 C1.33989524 2.84550012 0.48275034 5.52325999 -0.5625 8.25 C-0.83191406 8.95640625 -1.10132813 9.6628125 -1.37890625 10.390625 C-1.58386719 10.92171875 -1.78882813 11.4528125 -2 12 C-3.125 10.375 -3.125 10.375 -4 8 C-3.16933916 4.53891316 -2.52986895 2.52986895 0 0 Z " fill="#B4F0F4" transform="translate(374,357)"/>
<path d="M0 0 C0.33 0 0.66 0 1 0 C1.28571429 8.57142857 1.28571429 8.57142857 -1 12 C-1.66 12 -2.32 12 -3 12 C-3 12.99 -3 13.98 -3 15 C-3.66 15 -4.32 15 -5 15 C-4.731875 14.38125 -4.46375 13.7625 -4.1875 13.125 C-2.5516213 8.82005607 -1.28728674 4.41968448 0 0 Z " fill="#CBCEDC" transform="translate(697,647)"/>
<path d="M0 0 C3.3 0 6.6 0 10 0 C9.01 0.33 8.02 0.66 7 1 C7 1.66 7 2.32 7 3 C4.0625 2.625 4.0625 2.625 1 2 C0.67 1.34 0.34 0.68 0 0 Z " fill="#399AD7" transform="translate(448,448)"/>
</svg>
